# MagicaVoxel @ Ephtracy

# group
o 

# material
mtllib arrow_tower.mtl
usemtl palette

# normals
vn -1 0 0
vn 1 0 0
vn 0 0 1
vn 0 0 -1
vn 0 -1 0
vn 0 1 0

# texcoords
vt 0.369141 0.5
vt 0.373047 0.5
vt 0.958984 0.5
vt 0.986328 0.5
vt 0.994141 0.5

# verts
v -0.4 -0.4 0.2
v -0.4 -0.4 -0.2
v -0.4 -0.2 0.2
v -0.4 -0.2 -0.2
v -0.3 -0.4 0.3
v -0.3 -0.4 0.2
v -0.3 -0.4 -0.2
v -0.3 -0.4 -0.3
v -0.3 -0.2 0.2
v -0.3 -0.2 -0.2
v -0.3 -0.1 0.3
v -0.3 -0.1 -0.3
v -0.2 -0.4 0.4
v -0.2 -0.4 0.3
v -0.2 -0.4 -0.3
v -0.2 -0.4 -0.4
v -0.2 -0.1 0.4
v -0.2 -0.1 0.3
v -0.2 -0.1 -0.3
v -0.2 -0.1 -0.4
v -0.2 0 0.3
v -0.2 0 -0.3
v -0.2 0.3 -0.3
v -0.2 0.3 -0.4
v -0.2 0.4 -0.3
v -0.2 0.4 -0.4
v -0.1 0 0.2
v -0.1 0 -0.2
v -0.1 0.1 0.2
v -0.1 0.1 -0.2
v -0.1 0.3 0.3
v -0.1 0.3 0.2
v -0.1 0.3 -0.2
v -0.1 0.3 -0.3
v -0.1 0.4 0.3
v -0.1 0.4 0.2
v -0.1 0.4 -0.2
v -0.1 0.4 -0.3
v 0 0.1 0.2
v 0 0.1 0.1
v 0 0.1 0
v 0 0.1 -0.1
v 0 0.3 0.4
v 0 0.3 0.3
v 0 0.3 0.2
v 0 0.3 0.1
v 0 0.3 0
v 0 0.3 -0.1
v 0 0.3 -0.2
v 0 0.3 -0.3
v 0 0.3 -0.4
v 0 0.4 0.4
v 0 0.4 0.3
v 0 0.4 0.2
v 0 0.4 -0.1
v 0 0.4 -0.2
v 0 0.4 -0.3
v 0 0.4 -0.4
v 0.2 0.3 -0.3
v 0.2 0.3 -0.4
v 0.2 0.4 -0.3
v 0.2 0.4 -0.4
v -0.1 0.3 -0.3
v -0.1 0.3 -0.4
v -0.1 0.4 -0.3
v -0.1 0.4 -0.4
v 0.1 0.1 0.2
v 0.1 0.1 0.1
v 0.1 0.1 0
v 0.1 0.1 -0.1
v 0.1 0.3 0.4
v 0.1 0.3 0.3
v 0.1 0.3 0.2
v 0.1 0.3 0.1
v 0.1 0.3 0
v 0.1 0.3 -0.1
v 0.1 0.3 -0.2
v 0.1 0.3 -0.3
v 0.1 0.3 -0.4
v 0.1 0.4 0.4
v 0.1 0.4 0.3
v 0.1 0.4 0.2
v 0.1 0.4 -0.1
v 0.1 0.4 -0.2
v 0.1 0.4 -0.3
v 0.1 0.4 -0.4
v 0.2 0 0.2
v 0.2 0 -0.2
v 0.2 0.1 0.2
v 0.2 0.1 -0.2
v 0.2 0.3 0.3
v 0.2 0.3 0.2
v 0.2 0.3 -0.2
v 0.2 0.3 -0.3
v 0.2 0.4 0.3
v 0.2 0.4 0.2
v 0.2 0.4 -0.2
v 0.2 0.4 -0.3
v 0.3 -0.4 0.4
v 0.3 -0.4 0.3
v 0.3 -0.4 -0.3
v 0.3 -0.4 -0.4
v 0.3 -0.1 0.4
v 0.3 -0.1 0.3
v 0.3 -0.1 -0.3
v 0.3 -0.1 -0.4
v 0.3 0 0.3
v 0.3 0 -0.3
v 0.3 0.3 -0.3
v 0.3 0.3 -0.4
v 0.3 0.4 -0.3
v 0.3 0.4 -0.4
v 0.4 -0.4 0.3
v 0.4 -0.4 0.2
v 0.4 -0.4 -0.1
v 0.4 -0.4 -0.3
v 0.4 -0.2 0.2
v 0.4 -0.2 -0.1
v 0.4 -0.1 0.3
v 0.4 -0.1 -0.3
v 0.5 -0.4 0.2
v 0.5 -0.4 -0.1
v 0.5 -0.2 0.2
v 0.5 -0.2 -0.1
v -0.2 -0.4 0.4
v -0.2 -0.1 0.4
v 0 0.3 0.4
v 0 0.4 0.4
v 0.1 0.3 0.4
v 0.1 0.4 0.4
v 0.3 -0.4 0.4
v 0.3 -0.1 0.4
v -0.3 -0.4 0.3
v -0.3 -0.1 0.3
v -0.2 -0.4 0.3
v -0.2 -0.1 0.3
v -0.2 0 0.3
v -0.1 0.3 0.3
v -0.1 0.4 0.3
v 0 0.3 0.3
v 0 0.4 0.3
v 0.1 0.3 0.3
v 0.1 0.4 0.3
v 0.2 0.3 0.3
v 0.2 0.4 0.3
v 0.3 -0.4 0.3
v 0.3 -0.1 0.3
v 0.3 0 0.3
v 0.4 -0.4 0.3
v 0.4 -0.1 0.3
v -0.4 -0.4 0.2
v -0.4 -0.2 0.2
v -0.3 -0.4 0.2
v -0.3 -0.2 0.2
v -0.1 0 0.2
v -0.1 0.1 0.2
v 0 0.1 0.2
v 0 0.3 0.2
v 0.1 0.1 0.2
v 0.1 0.3 0.2
v 0.2 0 0.2
v 0.2 0.1 0.2
v 0.4 -0.4 0.2
v 0.4 -0.2 0.2
v 0.5 -0.4 0.2
v 0.5 -0.2 0.2
v 0 0.1 0
v 0 0.3 0
v 0.1 0.1 0
v 0.1 0.3 0
v -0.1 0.3 -0.2
v -0.1 0.4 -0.2
v 0 0.3 -0.2
v 0 0.4 -0.2
v 0.1 0.3 -0.2
v 0.1 0.4 -0.2
v 0.2 0.3 -0.2
v 0.2 0.4 -0.2
v -0.2 0.3 -0.3
v -0.2 0.4 -0.3
v -0.1 0.3 -0.3
v -0.1 0.4 -0.3
v 0.2 0.3 -0.3
v 0.2 0.4 -0.3
v 0.3 0.3 -0.3
v 0.3 0.4 -0.3
v -0.1 0.3 0.2
v -0.1 0.4 0.2
v 0 0.3 0.2
v 0 0.4 0.2
v 0.1 0.3 0.2
v 0.1 0.4 0.2
v 0.2 0.3 0.2
v 0.2 0.4 0.2
v 0 0.1 0.1
v 0 0.3 0.1
v 0.1 0.1 0.1
v 0.1 0.3 0.1
v 0 0.1 -0.1
v 0 0.3 -0.1
v 0.1 0.1 -0.1
v 0.1 0.3 -0.1
v 0.4 -0.4 -0.1
v 0.4 -0.2 -0.1
v 0.5 -0.4 -0.1
v 0.5 -0.2 -0.1
v -0.4 -0.4 -0.2
v -0.4 -0.2 -0.2
v -0.3 -0.4 -0.2
v -0.3 -0.2 -0.2
v -0.1 0 -0.2
v -0.1 0.1 -0.2
v 0.2 0 -0.2
v 0.2 0.1 -0.2
v -0.3 -0.4 -0.3
v -0.3 -0.1 -0.3
v -0.2 -0.4 -0.3
v -0.2 -0.1 -0.3
v -0.2 0 -0.3
v -0.1 0.3 -0.3
v -0.1 0.4 -0.3
v 0 0.3 -0.3
v 0 0.4 -0.3
v 0.1 0.3 -0.3
v 0.1 0.4 -0.3
v 0.2 0.3 -0.3
v 0.2 0.4 -0.3
v 0.3 -0.4 -0.3
v 0.3 -0.1 -0.3
v 0.3 0 -0.3
v 0.4 -0.4 -0.3
v 0.4 -0.1 -0.3
v -0.2 -0.4 -0.4
v -0.2 -0.1 -0.4
v -0.2 0.3 -0.4
v -0.2 0.4 -0.4
v -0.1 0.3 -0.4
v -0.1 0.4 -0.4
v 0 0.3 -0.4
v 0 0.4 -0.4
v 0.1 0.3 -0.4
v 0.1 0.4 -0.4
v 0.2 0.3 -0.4
v 0.2 0.4 -0.4
v 0.3 -0.4 -0.4
v 0.3 -0.1 -0.4
v 0.3 0.3 -0.4
v 0.3 0.4 -0.4
v -0.2 -0.4 0.4
v 0.3 -0.4 0.4
v -0.3 -0.4 0.3
v -0.2 -0.4 0.3
v 0.3 -0.4 0.3
v 0.4 -0.4 0.3
v -0.4 -0.4 0.2
v -0.3 -0.4 0.2
v 0.4 -0.4 0.2
v 0.5 -0.4 0.2
v 0.4 -0.4 -0.1
v 0.5 -0.4 -0.1
v -0.4 -0.4 -0.2
v -0.3 -0.4 -0.2
v -0.3 -0.4 -0.3
v -0.2 -0.4 -0.3
v 0.3 -0.4 -0.3
v 0.4 -0.4 -0.3
v -0.2 -0.4 -0.4
v 0.3 -0.4 -0.4
v 0 0.3 0.4
v 0.1 0.3 0.4
v -0.1 0.3 0.3
v 0 0.3 0.3
v 0.1 0.3 0.3
v 0.2 0.3 0.3
v -0.1 0.3 0.2
v 0 0.3 0.2
v 0.1 0.3 0.2
v 0.2 0.3 0.2
v 0 0.3 0.1
v 0.1 0.3 0.1
v 0 0.3 0
v 0.1 0.3 0
v 0 0.3 -0.1
v 0.1 0.3 -0.1
v -0.1 0.3 -0.2
v 0 0.3 -0.2
v 0.1 0.3 -0.2
v 0.2 0.3 -0.2
v -0.2 0.3 -0.3
v -0.1 0.3 -0.3
v 0 0.3 -0.3
v 0.1 0.3 -0.3
v 0.2 0.3 -0.3
v 0.3 0.3 -0.3
v -0.2 0.3 -0.4
v -0.1 0.3 -0.4
v 0 0.3 -0.4
v 0.1 0.3 -0.4
v 0.2 0.3 -0.4
v 0.3 0.3 -0.4
v -0.4 -0.2 0.2
v -0.3 -0.2 0.2
v 0.4 -0.2 0.2
v 0.5 -0.2 0.2
v 0.4 -0.2 -0.1
v 0.5 -0.2 -0.1
v -0.4 -0.2 -0.2
v -0.3 -0.2 -0.2
v -0.2 -0.1 0.4
v 0.3 -0.1 0.4
v -0.3 -0.1 0.3
v -0.2 -0.1 0.3
v 0.3 -0.1 0.3
v 0.4 -0.1 0.3
v -0.3 -0.1 -0.3
v -0.2 -0.1 -0.3
v 0.3 -0.1 -0.3
v 0.4 -0.1 -0.3
v -0.2 -0.1 -0.4
v 0.3 -0.1 -0.4
v -0.2 0 0.3
v 0.3 0 0.3
v -0.1 0 0.2
v 0.2 0 0.2
v -0.1 0 -0.2
v 0.2 0 -0.2
v -0.2 0 -0.3
v 0.3 0 -0.3
v -0.1 0.1 0.2
v 0 0.1 0.2
v 0.1 0.1 0.2
v 0.2 0.1 0.2
v 0 0.1 0.1
v 0.1 0.1 0.1
v 0 0.1 0
v 0.1 0.1 0
v 0 0.1 -0.1
v 0.1 0.1 -0.1
v -0.1 0.1 -0.2
v 0.2 0.1 -0.2
v 0 0.4 0.4
v 0.1 0.4 0.4
v -0.1 0.4 0.3
v 0 0.4 0.3
v 0.1 0.4 0.3
v 0.2 0.4 0.3
v -0.1 0.4 0.2
v 0 0.4 0.2
v 0.1 0.4 0.2
v 0.2 0.4 0.2
v 0 0.4 -0.1
v 0.1 0.4 -0.1
v -0.1 0.4 -0.2
v 0 0.4 -0.2
v 0.1 0.4 -0.2
v 0.2 0.4 -0.2
v -0.2 0.4 -0.3
v -0.1 0.4 -0.3
v 0 0.4 -0.3
v 0.1 0.4 -0.3
v 0.2 0.4 -0.3
v 0.3 0.4 -0.3
v -0.2 0.4 -0.4
v -0.1 0.4 -0.4
v 0 0.4 -0.4
v 0.1 0.4 -0.4
v 0.2 0.4 -0.4
v 0.3 0.4 -0.4

# faces
f 3/2/1 2/2/1 1/2/1
f 4/2/1 2/2/1 3/2/1
f 9/2/1 6/2/1 5/2/1
f 10/2/1 8/2/1 7/2/1
f 11/2/1 9/2/1 5/2/1
f 11/2/1 10/2/1 9/2/1
f 12/2/1 8/2/1 10/2/1
f 12/2/1 10/2/1 11/2/1
f 17/2/1 14/2/1 13/2/1
f 18/2/1 14/2/1 17/2/1
f 19/2/1 16/2/1 15/2/1
f 20/2/1 16/2/1 19/2/1
f 21/2/1 19/2/1 18/2/1
f 22/2/1 19/2/1 21/2/1
f 25/3/1 24/3/1 23/3/1
f 26/3/1 24/3/1 25/3/1
f 29/2/1 28/2/1 27/2/1
f 30/2/1 28/2/1 29/2/1
f 35/5/1 32/5/1 31/5/1
f 36/5/1 32/5/1 35/5/1
f 37/3/1 34/3/1 33/3/1
f 38/3/1 34/3/1 37/3/1
f 45/4/1 40/4/1 39/4/1
f 46/4/1 40/4/1 45/4/1
f 47/4/1 42/4/1 41/4/1
f 48/4/1 42/4/1 47/4/1
f 52/5/1 44/5/1 43/5/1
f 53/5/1 44/5/1 52/5/1
f 54/1/1 46/1/1 45/1/1
f 54/1/1 47/1/1 46/1/1
f 54/1/1 48/1/1 47/1/1
f 55/3/1 49/3/1 48/3/1
f 55/1/1 48/1/1 54/1/1
f 56/3/1 49/3/1 55/3/1
f 57/3/1 51/3/1 50/3/1
f 58/3/1 51/3/1 57/3/1
f 61/3/1 60/3/1 59/3/1
f 62/3/1 60/3/1 61/3/1
f 63/3/2 64/3/2 65/3/2
f 65/3/2 64/3/2 66/3/2
f 67/4/2 68/4/2 73/4/2
f 73/4/2 68/4/2 74/4/2
f 69/4/2 70/4/2 75/4/2
f 75/4/2 70/4/2 76/4/2
f 71/5/2 72/5/2 80/5/2
f 80/5/2 72/5/2 81/5/2
f 73/1/2 74/1/2 82/1/2
f 74/1/2 75/1/2 82/1/2
f 75/1/2 76/1/2 82/1/2
f 76/3/2 77/3/2 83/3/2
f 82/1/2 76/1/2 83/1/2
f 83/3/2 77/3/2 84/3/2
f 78/3/2 79/3/2 85/3/2
f 85/3/2 79/3/2 86/3/2
f 87/2/2 88/2/2 89/2/2
f 89/2/2 88/2/2 90/2/2
f 91/5/2 92/5/2 95/5/2
f 95/5/2 92/5/2 96/5/2
f 93/3/2 94/3/2 97/3/2
f 97/3/2 94/3/2 98/3/2
f 99/2/2 100/2/2 103/2/2
f 103/2/2 100/2/2 104/2/2
f 101/2/2 102/2/2 105/2/2
f 105/2/2 102/2/2 106/2/2
f 104/2/2 105/2/2 107/2/2
f 107/2/2 105/2/2 108/2/2
f 109/3/2 110/3/2 111/3/2
f 111/3/2 110/3/2 112/3/2
f 113/2/2 114/2/2 117/2/2
f 115/2/2 116/2/2 118/2/2
f 113/2/2 117/2/2 119/2/2
f 117/2/2 118/2/2 119/2/2
f 118/2/2 116/2/2 120/2/2
f 119/2/2 118/2/2 120/2/2
f 121/2/2 122/2/2 123/2/2
f 123/2/2 122/2/2 124/2/2
f 129/5/3 128/5/3 127/5/3
f 130/5/3 128/5/3 129/5/3
f 131/2/3 126/2/3 125/2/3
f 132/2/3 126/2/3 131/2/3
f 135/2/3 134/2/3 133/2/3
f 136/2/3 134/2/3 135/2/3
f 140/5/3 139/5/3 138/5/3
f 141/5/3 139/5/3 140/5/3
f 144/5/3 143/5/3 142/5/3
f 145/5/3 143/5/3 144/5/3
f 147/2/3 137/2/3 136/2/3
f 148/2/3 137/2/3 147/2/3
f 149/2/3 147/2/3 146/2/3
f 150/2/3 147/2/3 149/2/3
f 153/2/3 152/2/3 151/2/3
f 154/2/3 152/2/3 153/2/3
f 157/2/3 156/2/3 155/2/3
f 159/2/3 157/2/3 155/2/3
f 159/4/3 158/4/3 157/4/3
f 160/4/3 158/4/3 159/4/3
f 161/2/3 159/2/3 155/2/3
f 162/2/3 159/2/3 161/2/3
f 165/2/3 164/2/3 163/2/3
f 166/2/3 164/2/3 165/2/3
f 169/4/3 168/4/3 167/4/3
f 170/4/3 168/4/3 169/4/3
f 173/3/3 172/3/3 171/3/3
f 174/3/3 172/3/3 173/3/3
f 177/3/3 176/3/3 175/3/3
f 178/3/3 176/3/3 177/3/3
f 181/3/3 180/3/3 179/3/3
f 182/3/3 180/3/3 181/3/3
f 185/3/3 184/3/3 183/3/3
f 186/3/3 184/3/3 185/3/3
f 187/5/4 188/5/4 189/5/4
f 189/5/4 188/5/4 190/5/4
f 191/5/4 192/5/4 193/5/4
f 193/5/4 192/5/4 194/5/4
f 195/4/4 196/4/4 197/4/4
f 197/4/4 196/4/4 198/4/4
f 199/4/4 200/4/4 201/4/4
f 201/4/4 200/4/4 202/4/4
f 203/2/4 204/2/4 205/2/4
f 205/2/4 204/2/4 206/2/4
f 207/2/4 208/2/4 209/2/4
f 209/2/4 208/2/4 210/2/4
f 211/2/4 212/2/4 213/2/4
f 213/2/4 212/2/4 214/2/4
f 215/2/4 216/2/4 217/2/4
f 217/2/4 216/2/4 218/2/4
f 220/3/4 221/3/4 222/3/4
f 222/3/4 221/3/4 223/3/4
f 224/3/4 225/3/4 226/3/4
f 226/3/4 225/3/4 227/3/4
f 218/2/4 219/2/4 229/2/4
f 229/2/4 219/2/4 230/2/4
f 228/2/4 229/2/4 231/2/4
f 231/2/4 229/2/4 232/2/4
f 235/3/4 236/3/4 237/3/4
f 237/3/4 236/3/4 238/3/4
f 239/3/4 240/3/4 241/3/4
f 241/3/4 240/3/4 242/3/4
f 233/2/4 234/2/4 245/2/4
f 245/2/4 234/2/4 246/2/4
f 243/3/4 244/3/4 247/3/4
f 247/3/4 244/3/4 248/3/4
f 252/2/5 250/2/5 249/2/5
f 253/2/5 250/2/5 252/2/5
f 256/2/5 252/2/5 251/2/5
f 256/2/5 254/2/5 253/2/5
f 256/2/5 253/2/5 252/2/5
f 257/2/5 254/2/5 256/2/5
f 259/2/5 256/2/5 255/2/5
f 259/2/5 258/2/5 257/2/5
f 259/2/5 257/2/5 256/2/5
f 260/2/5 258/2/5 259/2/5
f 261/2/5 259/2/5 255/2/5
f 262/2/5 259/2/5 261/2/5
f 263/2/5 259/2/5 262/2/5
f 264/2/5 259/2/5 263/2/5
f 265/2/5 259/2/5 264/2/5
f 266/2/5 259/2/5 265/2/5
f 267/2/5 265/2/5 264/2/5
f 268/2/5 265/2/5 267/2/5
f 272/5/5 270/5/5 269/5/5
f 273/5/5 270/5/5 272/5/5
f 275/5/5 272/5/5 271/5/5
f 275/5/5 274/5/5 273/5/5
f 275/5/5 273/5/5 272/5/5
f 276/5/5 274/5/5 275/5/5
f 277/5/5 274/5/5 276/5/5
f 278/5/5 274/5/5 277/5/5
f 281/1/5 280/1/5 279/1/5
f 282/1/5 280/1/5 281/1/5
f 286/3/5 284/3/5 283/3/5
f 287/3/5 284/3/5 286/3/5
f 290/3/5 287/3/5 286/3/5
f 290/3/5 288/3/5 287/3/5
f 290/3/5 286/3/5 285/3/5
f 291/3/5 288/3/5 290/3/5
f 292/3/5 288/3/5 291/3/5
f 293/3/5 288/3/5 292/3/5
f 295/3/5 290/3/5 289/3/5
f 296/3/5 290/3/5 295/3/5
f 297/3/5 292/3/5 291/3/5
f 298/3/5 292/3/5 297/3/5
f 299/3/5 294/3/5 293/3/5
f 300/3/5 294/3/5 299/3/5
f 303/2/6 304/2/6 305/2/6
f 305/2/6 304/2/6 306/2/6
f 301/2/6 302/2/6 307/2/6
f 307/2/6 302/2/6 308/2/6
f 309/2/6 310/2/6 312/2/6
f 312/2/6 310/2/6 313/2/6
f 311/2/6 312/2/6 315/2/6
f 315/2/6 312/2/6 316/2/6
f 313/2/6 314/2/6 317/2/6
f 317/2/6 314/2/6 318/2/6
f 316/2/6 317/2/6 319/2/6
f 319/2/6 317/2/6 320/2/6
f 321/2/6 322/2/6 323/2/6
f 323/2/6 322/2/6 324/2/6
f 321/2/6 323/2/6 325/2/6
f 324/2/6 322/2/6 326/2/6
f 321/2/6 325/2/6 327/2/6
f 325/2/6 326/2/6 327/2/6
f 326/2/6 322/2/6 328/2/6
f 327/2/6 326/2/6 328/2/6
f 329/2/6 330/2/6 333/2/6
f 331/2/6 332/2/6 334/2/6
f 329/2/6 333/2/6 335/2/6
f 333/2/6 334/2/6 335/2/6
f 334/2/6 332/2/6 336/2/6
f 335/2/6 334/2/6 336/2/6
f 329/2/6 335/2/6 337/2/6
f 336/2/6 332/2/6 338/2/6
f 329/2/6 337/2/6 339/2/6
f 337/2/6 338/2/6 339/2/6
f 338/2/6 332/2/6 340/2/6
f 339/2/6 338/2/6 340/2/6
f 341/5/6 342/5/6 344/5/6
f 344/5/6 342/5/6 345/5/6
f 343/5/6 344/5/6 347/5/6
f 345/5/6 346/5/6 347/5/6
f 344/5/6 345/5/6 347/5/6
f 347/5/6 346/5/6 348/5/6
f 348/5/6 346/5/6 349/5/6
f 349/5/6 346/5/6 350/5/6
f 348/1/6 349/1/6 351/1/6
f 351/1/6 349/1/6 352/1/6
f 351/3/6 352/3/6 354/3/6
f 354/3/6 352/3/6 355/3/6
f 354/3/6 355/3/6 358/3/6
f 355/3/6 356/3/6 358/3/6
f 353/3/6 354/3/6 358/3/6
f 358/3/6 356/3/6 359/3/6
f 359/3/6 356/3/6 360/3/6
f 360/3/6 356/3/6 361/3/6
f 357/3/6 358/3/6 363/3/6
f 363/3/6 358/3/6 364/3/6
f 359/3/6 360/3/6 365/3/6
f 365/3/6 360/3/6 366/3/6
f 361/3/6 362/3/6 367/3/6
f 367/3/6 362/3/6 368/3/6
